<svg width="166" height="39" viewBox="0 0 166 39" fill="none" xmlns="http://www.w3.org/2000/svg">
<path d="M2.62405 0.0162616C5.38822 0.00204468 8.15036 0.0223545 10.9145 0.00204468C10.9328 1.92945 10.9227 3.85888 10.9267 5.78629C8.16458 5.8005 5.40244 5.79644 2.6403 5.79035C2.63624 3.86498 2.66061 1.94163 2.62405 0.0162616Z" fill="white"/>
<path d="M12.7038 0.00204468C15.4558 0.0162616 18.2057 0.0121996 20.9577 0.00610664C20.9922 5.58319 20.9435 11.1603 20.9821 16.7353C22.7998 13.9123 24.6988 11.1359 26.6973 8.43875C29.7803 8.34532 32.8735 8.3961 35.9586 8.41641C33.625 11.1623 31.3198 13.9346 28.9903 16.6845C31.4254 21.3152 34.1063 25.8077 36.5597 30.4262C33.4665 30.5094 30.3612 30.4932 27.266 30.4424C25.9682 27.5787 24.583 24.7536 23.2426 21.9103C22.5114 22.7044 21.7295 23.4518 20.9658 24.2154C20.9719 26.3033 20.9679 28.3911 20.9679 30.479C18.2139 30.4648 15.4598 30.4871 12.7058 30.4668C12.6977 20.3119 12.7018 10.157 12.7058 0.00204468H12.7038Z" fill="white"/>
<path d="M109.271 0.00203098C112.029 0.0203098 114.789 0.0121859 117.549 0C117.551 1.92943 117.545 3.85887 117.545 5.7883C114.787 5.79846 112.029 5.80252 109.273 5.78424C109.273 3.85684 109.271 1.92943 109.271 0.00203098Z" fill="white"/>
<path d="M122.16 2.72152C124.875 2.69715 127.592 2.69309 130.308 2.72355C130.29 4.61643 130.286 6.50931 130.302 8.40015C131.589 8.39 132.877 8.38797 134.167 8.39812C134.134 10.2707 134.173 12.1433 134.136 14.0158C132.82 14.0179 131.504 14.0239 130.19 14.0158C130.196 17.1496 130.2 20.2855 130.192 23.4193C130.186 23.9676 130.212 24.6379 130.722 24.973C131.563 25.4401 132.566 25.2776 133.486 25.2654C133.466 26.9755 133.513 28.6897 133.458 30.3998C132.203 30.6638 130.927 30.8324 129.644 30.8344C127.731 30.9217 125.641 30.8182 124.032 29.6564C122.507 28.515 122.074 26.4982 122.032 24.6947C121.991 21.1344 122.04 17.5721 122.005 14.0097C120.992 14.0219 119.976 14.028 118.965 14.0097C118.979 12.1433 118.983 10.2768 118.959 8.41031C120.033 8.36969 121.108 8.42655 122.182 8.35953C122.139 6.48087 122.196 4.60018 122.16 2.72152Z" fill="white"/>
<path d="M45.1305 10.6911C47.6855 7.15313 53.3661 6.95003 56.4837 9.84012C58.5736 11.733 59.5444 14.5642 59.7617 17.3162C59.9953 20.4094 59.6419 23.6691 58.0739 26.3987C56.7965 28.6998 54.4913 30.4363 51.8774 30.8689C49.5296 31.2203 46.7817 30.9786 45.1366 29.0573C45.1406 32.2195 45.1366 35.3838 45.1325 38.5481C42.4333 38.5501 39.7342 38.5379 37.035 38.5521C37.0208 29.8494 37.035 21.1466 37.0289 12.4459C36.9598 11.0993 36.9537 9.75279 36.9741 8.40625C39.6286 8.39 42.2851 8.37984 44.9396 8.40625C45.0249 9.16583 45.096 9.92542 45.1305 10.6891M47.0254 13.9427C46.2678 14.1844 45.7073 14.8343 45.4514 15.5716C44.9132 17.0359 44.9294 18.6241 44.9335 20.1656C44.9964 21.5284 45.0574 22.9907 45.8027 24.1809C46.8792 25.889 49.7753 25.6655 50.7076 23.9189C51.5931 22.2779 51.5768 20.3423 51.5504 18.5287C51.459 17.1598 51.3372 15.6183 50.342 14.5743C49.5337 13.6442 48.1221 13.6056 47.0254 13.9427Z" fill="white"/>
<path d="M68.4482 8.14829C70.3979 7.69132 72.5467 7.73194 74.3726 8.61948C75.1098 8.95865 75.6582 9.57404 76.1395 10.2077C76.2066 9.60857 76.2756 9.0074 76.3365 8.40826C79.0012 8.37982 81.6679 8.39201 84.3345 8.3981C84.2411 14.42 84.3122 20.4418 84.296 26.4637C84.2696 29.4492 84.1193 32.6846 82.3036 35.1949C80.6849 37.5711 77.7521 38.5866 75.0022 38.8629C71.9171 39.1513 68.6371 39.0802 65.7978 37.7032C63.5109 36.6166 61.9003 34.2871 61.7256 31.7564C64.4411 31.7422 67.1585 31.7483 69.8739 31.7544C70.138 32.6338 70.792 33.4503 71.7485 33.5925C73.0057 33.7956 74.6346 33.7549 75.382 32.5363C76.3 31.0192 76.0786 29.1548 76.1091 27.4589C75.1768 28.6917 73.8222 29.5711 72.2969 29.8575C70.1786 30.2109 67.8856 30.0809 65.9806 29.0085C63.4642 27.6518 61.9836 24.912 61.4941 22.1722C60.962 19.0262 61.2951 15.6629 62.7675 12.8033C63.9414 10.5855 65.9704 8.74134 68.4482 8.14829ZM72.039 13.7985C71.2631 14.095 70.6538 14.751 70.3309 15.5086C69.6749 16.9668 69.6404 18.6119 69.7358 20.1819C69.876 21.3253 70.1502 22.5317 70.9382 23.4152C71.8948 24.4957 73.6394 24.5749 74.8295 23.8478C75.7191 23.2629 76.0786 22.1743 76.2208 21.1689C76.4381 19.5584 76.4218 17.9194 76.2005 16.3108C76.0644 15.3156 75.579 14.2372 74.5858 13.8452C73.7795 13.5385 72.8554 13.5202 72.039 13.7985Z" fill="white"/>
<path d="M95.1942 8.10767C98.0071 7.78678 101.001 8.09752 103.473 9.56592C105.818 10.9551 107.331 13.5426 107.581 16.2377C104.973 16.2885 102.368 16.2377 99.7599 16.2661C99.573 15.4923 99.4227 14.6251 98.7688 14.095C98.2346 13.5588 97.4344 13.4735 96.7195 13.5202C95.7629 13.6319 95.0054 14.3854 94.6621 15.2506C93.935 16.9932 94.0183 18.9206 94.0548 20.7688C94.1503 22.1032 94.3168 23.5249 95.1171 24.6439C95.9051 25.765 97.7208 25.9011 98.6896 24.9466C99.2724 24.3982 99.5527 23.6285 99.7477 22.8729C102.329 22.8262 104.915 22.8729 107.498 22.8465C107.277 25.17 106.082 27.4122 104.244 28.8664C101.787 30.7552 98.5271 31.1695 95.5172 30.9725C92.5641 30.7978 89.5136 29.5406 87.771 27.0649C86.3716 25.2248 85.7948 22.9115 85.6486 20.6409C85.4293 17.2593 86.329 13.6319 88.7804 11.1846C90.4499 9.4136 92.8017 8.3981 95.1942 8.10767Z" fill="white"/>
<path d="M2.78448 8.42249C5.4999 8.35953 8.21533 8.40624 10.9308 8.39608C10.9145 14.621 10.9308 20.846 10.9247 27.071C10.9165 29.3883 10.9897 31.7463 10.4474 34.0169C10.0879 35.6275 9.14349 37.1507 7.65275 37.9306C5.32321 39.1838 2.57732 38.9725 0.0243718 38.8974C-0.0182789 36.8969 0.0284338 34.8984 0 32.8999C0.781929 32.8776 1.75883 33.0603 2.32954 32.384C2.83119 31.7422 2.74792 30.8689 2.7987 30.1053C2.7926 22.877 2.81901 15.6487 2.78448 8.42249Z" fill="white"/>
<path d="M109.255 8.4042C112.023 8.39404 114.793 8.3717 117.561 8.41638C117.537 15.7624 117.543 23.1085 117.561 30.4546C114.791 30.483 112.021 30.4952 109.253 30.4505C109.285 23.1024 109.279 15.7523 109.253 8.4042H109.255Z" fill="white"/>
<path d="M134.622 8.40422C137.607 8.37782 140.595 8.39813 143.582 8.3961C144.87 13.3842 146.072 18.4048 146.966 23.4822C147.86 18.4251 148.993 13.4126 150.189 8.41844C152.917 8.35954 155.646 8.40828 158.374 8.39813C156.355 14.68 154.391 20.9801 152.403 27.2721C151.572 29.8209 150.874 32.447 149.551 34.7989C148.686 36.3201 147.37 37.6585 145.689 38.2434C143.044 39.2224 140.162 38.9685 137.406 38.7695C137.41 36.7913 137.359 34.8111 137.435 32.8329C138.755 32.9182 140.25 33.1314 141.409 32.3333C141.968 31.9778 142.226 31.3442 142.467 30.7593C139.827 23.3177 137.25 15.8518 134.622 8.40422Z" fill="white"/>
<path d="M157.312 22.2941C160.058 22.2961 162.804 22.3164 165.55 22.286C165.6 25.0542 165.578 27.8245 165.564 30.5927C162.808 30.546 160.054 30.6008 157.3 30.5643C157.326 27.8062 157.294 25.0501 157.312 22.2941Z" fill="white"/>
</svg>
