<svg width="70" height="73" viewBox="0 0 70 73" fill="none" xmlns="http://www.w3.org/2000/svg">
<g clip-path="url(#clip0_92_699)">
<path d="M69.7131 72.1663V63.1529L55.4615 53.3929H47.9131V72.1663H69.7131ZM0.0356445 72.1663V63.1529L14.2873 53.3929H21.8356V72.1663H0.0356445ZM34.6744 55.4396C34.6034 55.2129 34.526 54.9929 34.4679 54.7663C34.3969 54.5063 34.3324 54.2396 34.3324 53.9663C34.3324 53.5996 34.5905 53.3129 34.9453 53.2596C35.2744 53.2129 35.6034 53.4463 35.6873 53.7863C35.7324 53.9663 35.7066 54.1396 35.6744 54.3196C35.6098 54.6796 35.5066 55.0329 35.384 55.3796C35.3647 55.4263 35.3518 55.4463 35.3002 55.4263C35.1131 55.3729 34.9195 55.3729 34.7324 55.4263C34.7195 55.4329 34.7066 55.4329 34.6744 55.4396ZM35.3776 57.6463C35.4486 57.8796 35.526 58.1129 35.5905 58.3529C35.655 58.5929 35.7131 58.8396 35.7131 59.0929C35.7195 59.4729 35.4486 59.7863 35.0873 59.8196C34.7324 59.8529 34.4034 59.5929 34.3453 59.2196C34.3131 59.0329 34.3453 58.8529 34.3905 58.6729C34.4744 58.3463 34.5776 58.0196 34.6679 57.6929C34.6808 57.6596 34.6873 57.6329 34.7389 57.6463C34.9389 57.7063 35.1389 57.6996 35.3389 57.6463H35.3776ZM34.2744 55.6929C34.1066 55.8596 33.9905 56.0529 33.9389 56.2996C33.8292 56.2796 33.7195 56.2596 33.6163 56.2396C33.2873 56.1729 32.9647 56.0796 32.655 55.9463C32.4163 55.8396 32.2486 55.6729 32.1969 55.4063C32.1389 55.1129 32.2292 54.8729 32.455 54.6929C32.6808 54.5196 32.926 54.4929 33.184 54.6263C33.384 54.7263 33.5518 54.8863 33.7066 55.0529C33.8937 55.2463 34.0615 55.4529 34.2421 55.6529C34.255 55.6596 34.2615 55.6729 34.2744 55.6929ZM36.126 56.2996C36.0098 55.9596 35.9969 55.9329 35.784 55.6863C35.8163 55.6463 35.8486 55.5996 35.8873 55.5529C36.1195 55.2663 36.3711 54.9929 36.6615 54.7596C36.7905 54.6529 36.9324 54.5596 37.1066 54.5463C37.4421 54.5129 37.7453 54.7129 37.8485 55.0396C37.9453 55.3729 37.8098 55.7196 37.5131 55.8863C37.2421 56.0329 36.9453 56.1129 36.6486 56.1863C36.4679 56.2329 36.3002 56.2663 36.126 56.2996ZM33.9324 56.7729C33.9905 57.0263 34.1002 57.2263 34.2744 57.3929C34.2421 57.4396 34.2098 57.4796 34.1711 57.5263C33.9195 57.8329 33.6485 58.1263 33.3324 58.3729C33.0485 58.5863 32.7453 58.5996 32.4808 58.4196C32.0744 58.1396 32.0808 57.5129 32.4873 57.2329C32.6679 57.1129 32.8679 57.0463 33.0679 56.9863C33.3582 56.9063 33.6421 56.8463 33.9324 56.7729ZM35.784 57.4063C35.855 57.3063 35.9324 57.2196 35.9905 57.1129C36.0485 57.0129 36.0808 56.8996 36.1324 56.7863C36.2937 56.8196 36.4679 56.8463 36.6356 56.8929C36.9002 56.9729 37.1647 57.0529 37.4227 57.1529C37.655 57.2463 37.8098 57.4263 37.855 57.6863C37.9066 57.9729 37.8227 58.2196 37.5969 58.3929C37.3776 58.5663 37.126 58.5996 36.8744 58.4663C36.7195 58.3796 36.5776 58.2663 36.455 58.1463C36.2356 57.9263 36.0292 57.6863 35.8227 57.4596C35.8098 57.4396 35.7969 57.4196 35.784 57.4063ZM35.7195 56.5396C35.7195 56.9396 35.4163 57.2596 35.0292 57.2596C34.6421 57.2596 34.3389 56.9396 34.3389 56.5463C34.3389 56.1529 34.6421 55.8329 35.0227 55.8329C35.4034 55.8263 35.7195 56.1396 35.7195 56.5396Z" fill="black"/>
<path d="M44.2098 27.6129L40.2162 16.4063L35.3066 2.61959C35.7775 2.43959 36.1066 1.97959 36.1066 1.43293C36.1066 0.732926 35.5582 0.16626 34.8808 0.16626C34.2033 0.16626 33.655 0.732926 33.655 1.43293C33.655 1.97959 33.9904 2.43959 34.455 2.61959L29.5453 16.3996L25.5517 27.6063H22.6292V72.1663H47.1324V27.6129H44.2098ZM29.2872 35.3196C29.2872 34.4663 29.5195 33.6196 29.984 32.9129C30.7453 31.7529 31.8743 31.3729 31.8743 31.3729C31.8743 31.3729 33.0033 31.7529 33.7646 32.9129C34.2291 33.6196 34.4614 34.4663 34.455 35.3196V46.5996H29.2872V35.3196ZM35.0292 60.5463C32.8879 60.5463 31.1517 58.7523 31.1517 56.5396C31.1517 54.3269 32.8879 52.5329 35.0292 52.5329C37.1704 52.5329 38.9066 54.3269 38.9066 56.5396C38.9066 58.7523 37.1704 60.5463 35.0292 60.5463ZM40.455 46.5996H35.2872V35.3196C35.2872 34.4663 35.5195 33.6196 35.984 32.9129C36.7453 31.7529 37.8743 31.3729 37.8743 31.3729C37.8743 31.3729 39.0033 31.7529 39.7646 32.9129C40.2292 33.6196 40.4614 34.4663 40.455 35.3196V46.5996Z" fill="black"/>
</g>
<defs>
<clipPath id="clip0_92_699">
<rect width="69.6774" height="72" fill="white" transform="translate(0.0356445 0.16626)"/>
</clipPath>
</defs>
</svg>
