<svg width="30" height="30" viewBox="0 0 30 30" fill="none" xmlns="http://www.w3.org/2000/svg">
<g clip-path="url(#clip0_92_633)">
<path d="M26.6385 4.15834L21.4614 2.30557H20.3551V0.678345H18.5399V2.30557H12.0901V0.678345H10.2749V2.30557H9.16864L3.99161 4.15834L0.815033 9.19844V29.6783H13.14V25.7016C13.14 24.4986 14.1148 23.5239 15.315 23.5239C16.5153 23.5239 17.49 24.4986 17.49 25.7016V29.6783H29.815V9.1877L26.6385 4.15834ZM5.67522 26.4508H3.45726V24.2328H5.67522V26.4508ZM5.67522 21.3462H3.45726V16.9291H5.67522V21.3462ZM5.67522 14.0398H3.45726V11.1291H5.67522V14.0398ZM9.63318 26.4508H7.41522V24.2328H9.63318V26.4508ZM9.63318 21.3462H7.41522V16.9291H9.63318V21.3462ZM9.63318 14.0398H7.41522V11.1291H9.63318V14.0398ZM16.3596 21.3462H14.1416V16.9291H16.3596V21.3462ZM16.3596 14.0398H14.1416V11.1291H16.3596V14.0398ZM23.2148 26.4508H20.9969V24.2328H23.2148V26.4508ZM23.2148 21.3462H20.9969V16.9291H23.2148V21.3462ZM23.2148 14.0398H20.9969V11.1291H23.2148V14.0398ZM27.1728 26.4508H24.9548V24.2328H27.1728V26.4508ZM27.1728 21.3462H24.9548V16.9291H27.1728V21.3462ZM27.1728 14.0398H24.9548V11.1291H27.1728V14.0398Z" fill="black"/>
</g>
<defs>
<clipPath id="clip0_92_633">
<rect width="29" height="29" fill="white" transform="translate(0.815033 0.678345)"/>
</clipPath>
</defs>
</svg>
