<svg width="73" height="73" viewBox="0 0 73 73" fill="none" xmlns="http://www.w3.org/2000/svg">
<g clip-path="url(#clip0_92_693)">
<path d="M0.358276 41.8328L31.1316 41.8395L25.9316 47.5795L19.2049 55.0061C19.4116 54.8595 19.6183 54.7128 19.8449 54.5795C21.2783 53.7061 22.7516 53.4928 24.0249 53.3595C27.6249 52.9861 30.0783 54.8328 32.1983 56.8795C33.5583 58.1928 35.0316 58.8261 36.6983 58.8128C38.3983 58.7995 39.8916 58.1661 41.1449 56.9328C42.2449 55.8528 43.6049 54.6395 45.3516 53.8861C46.1516 53.5395 48.5383 52.5995 52.0849 53.8395C52.6116 54.0261 53.0783 54.2928 53.5249 54.5661L47.6649 48.0995L47.1916 47.5728L41.9916 41.8328H72.3583V33.3661L40.1049 6.46614V0.166138H32.6183V6.50614L0.358276 33.4928V41.8328ZM40.1049 15.2528L62.9383 34.3528H40.1049V15.2528ZM32.6183 34.3528H9.83161L32.6183 15.2861V34.3528ZM40.1049 11.9995V9.72614L69.545 34.3595H66.8249L40.1049 11.9995ZM32.6183 12.0328L5.94494 34.3528H3.22494L32.6183 9.75947V12.0328Z" fill="black"/>
<path d="M67.6516 58.6795C67.4716 58.8461 67.2916 59.0128 67.1183 59.1728C65.965 60.2195 64.7249 60.9395 63.4049 61.3395C61.9316 61.7861 60.3583 61.8395 58.6916 61.4861C57.0183 61.1261 55.7049 60.2328 54.6316 59.3128C54.4449 59.1528 54.2649 58.9928 54.0916 58.8328C53.0783 57.9061 52.1249 57.0261 50.9516 56.5795C50.3716 56.3595 49.8249 56.0861 48.9049 56.1195C48.7316 56.1261 47.3649 56.1195 46.4449 56.5728C45.1783 57.1995 44.0849 58.0795 43.1383 59.0195C43.0383 59.1195 42.9316 59.2128 42.8316 59.3061C41.0983 60.8861 38.9649 61.7261 36.6516 61.7395C34.3383 61.7395 32.2716 60.9328 30.4383 59.3061C30.3183 59.1995 30.2049 59.0928 30.0849 58.9795C28.1716 57.1328 26.5316 56.0328 24.2516 56.2661C23.0383 56.3928 22.1249 56.5661 21.3049 57.0728C20.6449 57.4728 20.0516 58.0128 19.4249 58.5861C19.1649 58.8261 18.8983 59.0661 18.6183 59.3061C18.4716 59.4328 18.3183 59.5595 18.1649 59.6861C15.7449 61.6128 12.9716 62.1795 9.93161 61.3728C7.85828 60.8195 6.39161 59.4528 5.09828 58.2461L4.97828 58.1328C3.53161 56.7928 2.06494 56.1661 0.358276 56.1661V72.1661H72.3583V56.2795C71.9583 56.3128 71.5316 56.3728 71.0783 56.4528C69.785 56.6928 68.7516 57.6595 67.6516 58.6795Z" fill="black"/>
</g>
<defs>
<clipPath id="clip0_92_693">
<rect width="72" height="72" fill="white" transform="translate(0.358276 0.166138)"/>
</clipPath>
</defs>
</svg>
