<?xml version="1.0" encoding="utf-8"?>
<!-- Generator: Adobe Illustrator 28.0.0, SVG Export Plug-In . SVG Version: 6.00 Build 0)  -->
<svg version="1.1" id="Layer_1" xmlns="http://www.w3.org/2000/svg" xmlns:xlink="http://www.w3.org/1999/xlink" x="0px" y="0px"
	 viewBox="0 0 25 20" style="enable-background:new 0 0 25 20;" xml:space="preserve">
<style type="text/css">
	.st0{fill:#FFFFFF;}
</style>
<path class="st0" d="M24.5,4.5c-0.3,0.6-1.1,0.6-1.7,0.4C22.2,4.3,21.6,3.6,21,3c-0.7,0.6-1.3,1.4-2,2c-0.4,0.1-0.8,0.1-1.2,0
	c-0.6-0.4-0.8-1.4-0.3-1.9c0.9-0.9,1.8-1.9,2.7-2.8c0.5-0.5,1.2-0.3,1.6,0.1c0.8,0.8,1.6,1.6,2.4,2.5C24.7,3.3,24.7,4,24.5,4.5z"/>
<path class="st0" d="M0.7,1.4C1,1.2,1.3,1.3,1.6,1.3c3.9,0,7.9,0,11.8,0c1.2,0.1,1.2,2.3,0,2.4c-4.1,0-8.1,0-12.2,0
	C0.6,3.8-0.1,3.1,0,2.4C0,1.9,0.4,1.6,0.7,1.4z"/>
<path class="st0" d="M1,9.3c7.5-0.1,14.9,0,22.4,0c0.9-0.1,1.6,1,1.1,1.9c-0.2,0.4-0.7,0.7-1.2,0.7c-7.3,0-14.7,0-22,0
	c-0.7,0-1.3-0.6-1.3-1.3C0,10,0.4,9.4,1,9.3z"/>
<path class="st0" d="M0.9,17.4c7.3-0.1,14.7,0,22,0c0.4,0,0.9-0.1,1.2,0.3c0.6,0.4,0.6,1.4,0.1,1.8c-0.4,0.5-1.1,0.3-1.7,0.4
	c-7.1,0-14.2,0-21.3,0c-0.7,0.1-1.3-0.6-1.2-1.3C0,18,0.4,17.5,0.9,17.4z"/>
</svg>
