<svg width="25" height="20" viewBox="0 0 25 20" fill="none" xmlns="http://www.w3.org/2000/svg">
<path d="M17.2931 0.503738C17.5971 -0.110774 18.4122 -0.064885 18.9524 0.128646C19.6378 0.69727 20.1955 1.41753 20.8383 2.03802C21.5818 1.46341 22.1375 0.679313 22.8597 0.0827576C23.2315 -0.0249816 23.6362 -0.00902015 24.0099 0.0847528C24.6333 0.449869 24.8579 1.43947 24.3042 1.97019C23.4271 2.9139 22.5286 3.84365 21.607 4.74148C21.152 5.20236 20.3852 5.08664 19.9689 4.62775C19.1518 3.81173 18.3464 2.97775 17.5525 2.13579C17.1111 1.72877 17.0956 1.04044 17.2931 0.503738Z" fill="white"/>
<path d="M0.726724 1.3597C1.00941 1.20806 1.34438 1.28787 1.64837 1.26193C5.59054 1.28388 9.53464 1.24398 13.4768 1.28188C14.7218 1.39361 14.716 3.59628 13.4633 3.6701C9.3933 3.69005 5.32334 3.6721 1.25338 3.67808C0.562145 3.77186 -0.0903656 3.06357 0.0103185 2.35928C0.0199996 1.92233 0.376266 1.56121 0.726724 1.3597Z" fill="white"/>
<path d="M0.970701 9.30441C8.4252 9.23059 15.8874 9.28845 23.3458 9.27448C24.2365 9.21064 24.9529 10.3239 24.4766 11.126C24.2287 11.527 23.7931 11.8103 23.3245 11.7984C15.9784 11.8004 8.63044 11.8024 1.28437 11.7984C0.626052 11.8083 -0.00903221 11.2337 0.00645765 10.5354C-0.0206496 9.95284 0.436301 9.43609 0.970701 9.30441Z" fill="white"/>
<path d="M0.941594 17.3988C8.27991 17.335 15.624 17.3948 22.9643 17.3709C23.369 17.3889 23.8453 17.317 24.1686 17.6343C24.7301 18.0473 24.7824 18.997 24.2422 19.4519C23.8182 19.9547 23.1347 19.795 22.5654 19.819C15.4614 19.809 8.3593 19.819 1.25526 19.815C0.596945 19.8768 -0.0671826 19.1965 0.0102667 18.5161C0.00833051 17.9894 0.420748 17.4547 0.941594 17.3988Z" fill="white"/>
</svg>
