<svg width="73" height="73" viewBox="0 0 73 73" fill="none" xmlns="http://www.w3.org/2000/svg">
<g clip-path="url(#clip0_92_675)">
<path d="M48.5983 62.1261V54.5261H44.2983C43.7183 53.5461 42.9649 52.6861 42.0849 51.9861C43.6916 50.4661 44.6916 48.3195 44.6916 45.9328C44.6916 45.6861 44.6783 45.4395 44.6583 45.1995C50.6583 42.1661 54.7716 35.9461 54.7716 28.7661V28.7461H37.9249V21.2461C43.3249 20.4861 47.4849 15.8461 47.4849 10.2328V10.2195H37.9249V5.25947H41.4516V5.2528C41.4516 2.44614 39.1716 0.166138 36.3583 0.166138C33.5449 0.166138 31.2649 2.44614 31.2649 5.25947V5.26614H34.7916V10.2261H25.2316V10.2395C25.2316 15.8528 29.3849 20.4928 34.7916 21.2528V28.7595H17.9516V28.7795C17.9516 35.9595 22.0649 42.1728 28.0649 45.2128C28.0449 45.4528 28.0316 45.6995 28.0316 45.9461C28.0316 48.3328 29.0316 50.4795 30.6383 51.9995C29.7516 52.6995 28.9983 53.5661 28.4249 54.5395H24.1249V62.1395H0.358276V62.9261C0.358276 68.0395 4.49828 72.1795 9.61161 72.1795H63.1049C68.2183 72.1795 72.3583 68.0395 72.3583 62.9261V62.1395H48.5983V62.1261Z" fill="black"/>
</g>
<defs>
<clipPath id="clip0_92_675">
<rect width="72" height="72" fill="white" transform="translate(0.358276 0.166138)"/>
</clipPath>
</defs>
</svg>
