<svg width="73" height="73" viewBox="0 0 73 73" fill="none" xmlns="http://www.w3.org/2000/svg">
<g clip-path="url(#clip0_92_691)">
<path d="M49.125 0.16626V18.8996H34.105V22.7196H49.125V61.7063H39.0516V72.1596H49.925L72.3583 72.1663V0.16626H49.125ZM66.385 16.0996L62.785 18.7129H58.3383L54.7383 16.0996L53.365 11.8663L54.7383 7.63293L58.3383 5.01959H62.785L66.385 7.63293L67.765 11.8663L66.385 16.0996Z" fill="black"/>
<path d="M61.1649 8.87964H60.0116V12.373L57.5183 13.313L57.9249 14.393L61.1649 13.173L61.1583 13.1596H61.1649V8.87964ZM32.8916 26.1796H5.01828C2.44494 26.1796 0.358276 28.2663 0.358276 30.8463V65.133C0.358276 66.733 1.65828 68.033 3.25828 68.033H9.41161L5.27161 72.1663L10.9516 72.1596L15.0583 68.0263H22.8583L26.9649 72.1596L32.6449 72.1663L28.5049 68.0263H34.6583C36.2583 68.0263 37.5583 66.7263 37.5583 65.1263V30.8463C37.5583 28.2663 35.4649 26.1796 32.8916 26.1796ZM9.65828 61.033C8.38494 61.0196 7.33828 59.9596 7.34494 58.6996C7.35161 57.4263 8.40494 56.3863 9.67161 56.3863C10.9449 56.393 11.9849 57.433 11.9849 58.713C11.9849 59.993 10.9116 61.0463 9.65828 61.033ZM28.2249 61.0263C26.9516 61.0063 25.9183 59.9596 25.9249 58.6863C25.9316 57.413 26.9916 56.3796 28.2583 56.3863C29.5249 56.3996 30.5716 57.453 30.5649 58.7196C30.5583 59.973 29.4649 61.0463 28.2249 61.0263ZM30.5783 47.3663H7.33161V34.9663H30.5783V47.3663Z" fill="black"/>
</g>
<defs>
<clipPath id="clip0_92_691">
<rect width="72" height="72" fill="white" transform="translate(0.358276 0.16626)"/>
</clipPath>
</defs>
</svg>
