<svg width="71" height="73" viewBox="0 0 71 73" fill="none" xmlns="http://www.w3.org/2000/svg">
<path fill-rule="evenodd" clip-rule="evenodd" d="M0.358398 0.16626H33.3906V14.1142H0.358398V0.16626ZM37.5197 0.16626H70.0359V14.1142H37.5197V0.16626ZM14.2939 19.5723H0.358398V33.5202H14.2939V19.5723ZM18.7455 19.5723H51.6487V33.5202H18.7455V19.5723ZM70.0359 19.5723H56.1004V33.5202H70.0359V19.5723ZM0.358398 38.8115H33.3906V52.7594H0.358398V38.8115ZM70.0359 38.8115H37.5197V52.7594H70.0359V38.8115ZM0.358398 58.2182H14.2939V72.1663H0.358398V58.2182ZM51.6487 58.2182H18.7455V72.1663H51.6487V58.2182ZM56.1004 58.2182H70.0359V72.1663H56.1004V58.2182Z" fill="black"/>
</svg>
